<svg xmlns="http://www.w3.org/2000/svg" width="1440" height="900" viewBox="0 0 1440 900" id="03-desktop-budgets-goals"><rect x="0" y="0" width="1440" height="900" fill="#0A0A0B" id="canvas"/><g id="sidebar"><rect x="240" y="0" width="1" height="900" fill="#1E1E20"/><rect x="32" y="34" width="28" height="28" fill="#5DCAA5" rx="9"/><text x="72" y="53.95" font-family="SF Pro Display, SF Pro Text, -apple-system, BlinkMacSystemFont, Inter, Helvetica Neue, FreeSans, DejaVu Sans, sans-serif" font-size="17" fill="#F5F4F1" font-weight="500" letter-spacing="-0.31">Ledger</text><g transform="translate(32,124) scale(0.8333)" fill="none" stroke="#8C8C87" stroke-width="2.04" stroke-linecap="round" stroke-linejoin="round"><path d="M4 4h7v7H4z M13 4h7v7h-7z M4 13h7v7H4z M13 13h7v7h-7z"/></g><text x="68" y="138.9" font-family="SF Pro Display, SF Pro Text, -apple-system, BlinkMacSystemFont, Inter, Helvetica Neue, FreeSans, DejaVu Sans, sans-serif" font-size="14" fill="#8C8C87" font-weight="400" letter-spacing="-0.25">Overview</text><g transform="translate(32,174) scale(0.8333)" fill="none" stroke="#8C8C87" stroke-width="2.04" stroke-linecap="round" stroke-linejoin="round"><path d="M7 10h14l-4-4 M17 14H3l4 4"/></g><text x="68" y="188.9" font-family="SF Pro Display, SF Pro Text, -apple-system, BlinkMacSystemFont, Inter, Helvetica Neue, FreeSans, DejaVu Sans, sans-serif" font-size="14" fill="#8C8C87" font-weight="400" letter-spacing="-0.25">Money flow</text><rect x="16" y="212" width="208" height="44" fill="#1C1C1F" rx="11"/><g transform="translate(32,224) scale(0.8333)" fill="none" stroke="#F5F4F1" stroke-width="2.04" stroke-linecap="round" stroke-linejoin="round"><path d="M12 3a9 9 0 1 0 0 18 9 9 0 0 0 0-18z M12 7a5 5 0 1 0 0 10 5 5 0 0 0 0-10z M12 11a1 1 0 1 0 0 2 1 1 0 0 0 0-2z"/></g><text x="68" y="238.9" font-family="SF Pro Display, SF Pro Text, -apple-system, BlinkMacSystemFont, Inter, Helvetica Neue, FreeSans, DejaVu Sans, sans-serif" font-size="14" fill="#F5F4F1" font-weight="400" letter-spacing="-0.25">Budgets</text><g transform="translate(32,274) scale(0.8333)" fill="none" stroke="#8C8C87" stroke-width="2.04" stroke-linecap="round" stroke-linejoin="round"><path d="M4 19V5 M4 19h16 M7 15l4-5 3 3 4-6"/></g><text x="68" y="288.9" font-family="SF Pro Display, SF Pro Text, -apple-system, BlinkMacSystemFont, Inter, Helvetica Neue, FreeSans, DejaVu Sans, sans-serif" font-size="14" fill="#8C8C87" font-weight="400" letter-spacing="-0.25">Investments</text><g transform="translate(32,324) scale(0.8333)" fill="none" stroke="#8C8C87" stroke-width="2.04" stroke-linecap="round" stroke-linejoin="round"><path d="M17 8V6a2 2 0 0 0-2-2H5a2 2 0 0 0 0 4h14a2 2 0 0 1 2 2v6a2 2 0 0 1-2 2H5a2 2 0 0 1-2-2V6 M18 12.5a1 1 0 1 0 0 2"/></g><text x="68" y="338.9" font-family="SF Pro Display, SF Pro Text, -apple-system, BlinkMacSystemFont, Inter, Helvetica Neue, FreeSans, DejaVu Sans, sans-serif" font-size="14" fill="#8C8C87" font-weight="400" letter-spacing="-0.25">Accounts</text><rect x="16" y="812" width="208" height="1" fill="#1E1E20"/><circle cx="37" cy="848" r="17" fill="#26215C"/><text x="37" y="852.2" font-family="SF Pro Display, SF Pro Text, -apple-system, BlinkMacSystemFont, Inter, Helvetica Neue, FreeSans, DejaVu Sans, sans-serif" font-size="12" fill="#CECBF6" font-weight="400" letter-spacing="-0.22" text-anchor="middle">AR</text><text x="66" y="852.55" font-family="SF Pro Display, SF Pro Text, -apple-system, BlinkMacSystemFont, Inter, Helvetica Neue, FreeSans, DejaVu Sans, sans-serif" font-size="13" fill="#8C8C87" font-weight="400" letter-spacing="-0.23">Aarav Raman</text></g><g id="content"><text x="280" y="85.8" font-family="SF Pro Display, SF Pro Text, -apple-system, BlinkMacSystemFont, Inter, Helvetica Neue, FreeSans, DejaVu Sans, sans-serif" font-size="28" fill="#F5F4F1" font-weight="500" letter-spacing="-0.5">Budgets</text><text x="280" y="112.55" font-family="SF Pro Display, SF Pro Text, -apple-system, BlinkMacSystemFont, Inter, Helvetica Neue, FreeSans, DejaVu Sans, sans-serif" font-size="13" fill="#6E6E6A" font-weight="400" letter-spacing="-0.23">$4,126 of $5,200 spent - 19 days left in September</text><rect x="1280" y="81.0" width="107" height="30" fill="#141416" rx="8"/><text x="1333.5" y="100.55" font-family="SF Pro Display, SF Pro Text, -apple-system, BlinkMacSystemFont, Inter, Helvetica Neue, FreeSans, DejaVu Sans, sans-serif" font-size="13" fill="#8C8C87" font-weight="400" letter-spacing="-0.23" text-anchor="middle">Edit limits</text><rect x="280" y="170" width="1120" height="384" fill="#141416" rx="16"/><text x="312" y="216.9" font-family="SF Pro Display, SF Pro Text, -apple-system, BlinkMacSystemFont, Inter, Helvetica Neue, FreeSans, DejaVu Sans, sans-serif" font-size="14" fill="#8C8C87" font-weight="400" letter-spacing="-0.25">Housing</text><text x="1368" y="216.55" font-family="SF Pro Display, SF Pro Text, -apple-system, BlinkMacSystemFont, Inter, Helvetica Neue, FreeSans, DejaVu Sans, sans-serif" font-size="13" fill="#6E6E6A" font-weight="400" letter-spacing="-0.23" text-anchor="end" font-variant-numeric="tabular-nums">$1,850 / $1,900</text><rect x="312" y="228" width="1056" height="7" fill="#1F1F22" rx="3.5"/><rect x="312" y="228" width="1024" height="7" fill="#AFA9EC" rx="3.5"/><text x="312" y="274.9" font-family="SF Pro Display, SF Pro Text, -apple-system, BlinkMacSystemFont, Inter, Helvetica Neue, FreeSans, DejaVu Sans, sans-serif" font-size="14" fill="#8C8C87" font-weight="400" letter-spacing="-0.25">Food &amp; dining</text><text x="1368" y="274.55" font-family="SF Pro Display, SF Pro Text, -apple-system, BlinkMacSystemFont, Inter, Helvetica Neue, FreeSans, DejaVu Sans, sans-serif" font-size="13" fill="#6E6E6A" font-weight="400" letter-spacing="-0.23" text-anchor="end" font-variant-numeric="tabular-nums">$742 / $700</text><rect x="312" y="286" width="1056" height="7" fill="#1F1F22" rx="3.5"/><rect x="312" y="286" width="1056" height="7" fill="#E24B4A" rx="3.5"/><text x="312" y="332.9" font-family="SF Pro Display, SF Pro Text, -apple-system, BlinkMacSystemFont, Inter, Helvetica Neue, FreeSans, DejaVu Sans, sans-serif" font-size="14" fill="#8C8C87" font-weight="400" letter-spacing="-0.25">Transport</text><text x="1368" y="332.55" font-family="SF Pro Display, SF Pro Text, -apple-system, BlinkMacSystemFont, Inter, Helvetica Neue, FreeSans, DejaVu Sans, sans-serif" font-size="13" fill="#6E6E6A" font-weight="400" letter-spacing="-0.23" text-anchor="end" font-variant-numeric="tabular-nums">$410 / $600</text><rect x="312" y="344" width="1056" height="7" fill="#1F1F22" rx="3.5"/><rect x="312" y="344" width="718" height="7" fill="#85B7EB" rx="3.5"/><text x="312" y="390.9" font-family="SF Pro Display, SF Pro Text, -apple-system, BlinkMacSystemFont, Inter, Helvetica Neue, FreeSans, DejaVu Sans, sans-serif" font-size="14" fill="#8C8C87" font-weight="400" letter-spacing="-0.25">Leisure</text><text x="1368" y="390.55" font-family="SF Pro Display, SF Pro Text, -apple-system, BlinkMacSystemFont, Inter, Helvetica Neue, FreeSans, DejaVu Sans, sans-serif" font-size="13" fill="#6E6E6A" font-weight="400" letter-spacing="-0.23" text-anchor="end" font-variant-numeric="tabular-nums">$318 / $500</text><rect x="312" y="402" width="1056" height="7" fill="#1F1F22" rx="3.5"/><rect x="312" y="402" width="676" height="7" fill="#5DCAA5" rx="3.5"/><text x="312" y="448.9" font-family="SF Pro Display, SF Pro Text, -apple-system, BlinkMacSystemFont, Inter, Helvetica Neue, FreeSans, DejaVu Sans, sans-serif" font-size="14" fill="#8C8C87" font-weight="400" letter-spacing="-0.25">Shopping</text><text x="1368" y="448.55" font-family="SF Pro Display, SF Pro Text, -apple-system, BlinkMacSystemFont, Inter, Helvetica Neue, FreeSans, DejaVu Sans, sans-serif" font-size="13" fill="#6E6E6A" font-weight="400" letter-spacing="-0.23" text-anchor="end" font-variant-numeric="tabular-nums">$806 / $1,500</text><rect x="312" y="460" width="1056" height="7" fill="#1F1F22" rx="3.5"/><rect x="312" y="460" width="570" height="7" fill="#EF9F27" rx="3.5"/><rect x="312" y="494" width="1056" height="1" fill="#1E1E20"/><g transform="translate(312,512) scale(0.75)" fill="none" stroke="#F09595" stroke-width="2.27" stroke-linecap="round" stroke-linejoin="round"><path d="M12 9v4.5 M10.3 4.3 2.8 17a2 2 0 0 0 1.7 3h15a2 2 0 0 0 1.7-3L13.7 4.3a2 2 0 0 0-3.4 0z M12 16.8v.4"/></g><text x="340" y="525.55" font-family="SF Pro Display, SF Pro Text, -apple-system, BlinkMacSystemFont, Inter, Helvetica Neue, FreeSans, DejaVu Sans, sans-serif" font-size="13" fill="#8C8C87" font-weight="400" letter-spacing="-0.23">Food &amp; dining is $42 over. Current pace projects $180 over by month end.</text><text x="280" y="598.3" font-family="SF Pro Display, SF Pro Text, -apple-system, BlinkMacSystemFont, Inter, Helvetica Neue, FreeSans, DejaVu Sans, sans-serif" font-size="18" fill="#F5F4F1" font-weight="500" letter-spacing="-0.32">Goals</text><rect x="280" y="620" width="362" height="196" fill="#141416" rx="16"/><g transform="translate(304,648) scale(0.8333)" fill="none" stroke="#5DCAA5" stroke-width="2.04" stroke-linecap="round" stroke-linejoin="round"><path d="M12 3v1 M3 12a9 9 0 0 1 18 0z M12 12v7a2 2 0 0 0 4 0"/></g><text x="334" y="662.9" font-family="SF Pro Display, SF Pro Text, -apple-system, BlinkMacSystemFont, Inter, Helvetica Neue, FreeSans, DejaVu Sans, sans-serif" font-size="14" fill="#F5F4F1" font-weight="400" letter-spacing="-0.25">Emergency fund</text><text x="304" y="721.8" font-family="SF Pro Display, SF Pro Text, -apple-system, BlinkMacSystemFont, Inter, Helvetica Neue, FreeSans, DejaVu Sans, sans-serif" font-size="28" fill="#F5F4F1" font-weight="500" letter-spacing="-0.5">$12,400</text><text x="304" y="746.55" font-family="SF Pro Display, SF Pro Text, -apple-system, BlinkMacSystemFont, Inter, Helvetica Neue, FreeSans, DejaVu Sans, sans-serif" font-size="13" fill="#5A5A57" font-weight="400" letter-spacing="-0.23" font-variant-numeric="tabular-nums">of $18,000</text><rect x="304" y="770" width="314" height="7" fill="#1F1F22" rx="3.5"/><rect x="304" y="770" width="217" height="7" fill="#5DCAA5" rx="3.5"/><rect x="659" y="620" width="362" height="196" fill="#141416" rx="16"/><g transform="translate(683,648) scale(0.8333)" fill="none" stroke="#AFA9EC" stroke-width="2.04" stroke-linecap="round" stroke-linejoin="round"><path d="M16 10h4a2 2 0 0 1 0 4h-4l-4 7H9l2-7H6l-2 2H2l2-4-2-4h2l2 2h5L9 3h3z"/></g><text x="713" y="662.9" font-family="SF Pro Display, SF Pro Text, -apple-system, BlinkMacSystemFont, Inter, Helvetica Neue, FreeSans, DejaVu Sans, sans-serif" font-size="14" fill="#F5F4F1" font-weight="400" letter-spacing="-0.25">Japan trip</text><text x="683" y="721.8" font-family="SF Pro Display, SF Pro Text, -apple-system, BlinkMacSystemFont, Inter, Helvetica Neue, FreeSans, DejaVu Sans, sans-serif" font-size="28" fill="#F5F4F1" font-weight="500" letter-spacing="-0.5">$2,150</text><text x="683" y="746.55" font-family="SF Pro Display, SF Pro Text, -apple-system, BlinkMacSystemFont, Inter, Helvetica Neue, FreeSans, DejaVu Sans, sans-serif" font-size="13" fill="#5A5A57" font-weight="400" letter-spacing="-0.23" font-variant-numeric="tabular-nums">of $5,000</text><rect x="683" y="770" width="314" height="7" fill="#1F1F22" rx="3.5"/><rect x="683" y="770" width="135" height="7" fill="#AFA9EC" rx="3.5"/><rect x="1038" y="620" width="362" height="196" fill="#141416" rx="16"/><g transform="translate(1062,648) scale(0.8333)" fill="none" stroke="#EF9F27" stroke-width="2.04" stroke-linecap="round" stroke-linejoin="round"><path d="M4 12 12 4l8 8 M6 11v8a1 1 0 0 0 1 1h10a1 1 0 0 0 1-1v-8 M10 20v-6h4v6"/></g><text x="1092" y="662.9" font-family="SF Pro Display, SF Pro Text, -apple-system, BlinkMacSystemFont, Inter, Helvetica Neue, FreeSans, DejaVu Sans, sans-serif" font-size="14" fill="#F5F4F1" font-weight="400" letter-spacing="-0.25">Home deposit</text><text x="1062" y="721.8" font-family="SF Pro Display, SF Pro Text, -apple-system, BlinkMacSystemFont, Inter, Helvetica Neue, FreeSans, DejaVu Sans, sans-serif" font-size="28" fill="#F5F4F1" font-weight="500" letter-spacing="-0.5">$31,000</text><text x="1062" y="746.55" font-family="SF Pro Display, SF Pro Text, -apple-system, BlinkMacSystemFont, Inter, Helvetica Neue, FreeSans, DejaVu Sans, sans-serif" font-size="13" fill="#5A5A57" font-weight="400" letter-spacing="-0.23" font-variant-numeric="tabular-nums">of $80,000</text><rect x="1062" y="770" width="314" height="7" fill="#1F1F22" rx="3.5"/><rect x="1062" y="770" width="122" height="7" fill="#EF9F27" rx="3.5"/></g></svg>